<svg id="visual" viewBox="0 0 900 600" width="900" height="600" xmlns="http://www.w3.org/2000/svg" xmlns:xlink="http://www.w3.org/1999/xlink" version="1.1"><rect x="0" y="0" width="900" height="600" fill="#e0e0e0"></rect><defs><linearGradient id="grad1_0" x1="33.3%" y1="100%" x2="100%" y2="0%"><stop offset="20%" stop-color="#024a3a" stop-opacity="1"></stop><stop offset="80%" stop-color="#024a3a" stop-opacity="1"></stop></linearGradient></defs><defs><linearGradient id="grad1_1" x1="33.3%" y1="100%" x2="100%" y2="0%"><stop offset="20%" stop-color="#024a3a" stop-opacity="1"></stop><stop offset="80%" stop-color="#537a6d" stop-opacity="1"></stop></linearGradient></defs><defs><linearGradient id="grad1_2" x1="33.3%" y1="100%" x2="100%" y2="0%"><stop offset="20%" stop-color="#98aca5" stop-opacity="1"></stop><stop offset="80%" stop-color="#537a6d" stop-opacity="1"></stop></linearGradient></defs><defs><linearGradient id="grad1_3" x1="33.3%" y1="100%" x2="100%" y2="0%"><stop offset="20%" stop-color="#98aca5" stop-opacity="1"></stop><stop offset="80%" stop-color="#e0e0e0" stop-opacity="1"></stop></linearGradient></defs><defs><linearGradient id="grad2_0" x1="0%" y1="100%" x2="66.7%" y2="0%"><stop offset="20%" stop-color="#024a3a" stop-opacity="1"></stop><stop offset="80%" stop-color="#024a3a" stop-opacity="1"></stop></linearGradient></defs><defs><linearGradient id="grad2_1" x1="0%" y1="100%" x2="66.7%" y2="0%"><stop offset="20%" stop-color="#537a6d" stop-opacity="1"></stop><stop offset="80%" stop-color="#024a3a" stop-opacity="1"></stop></linearGradient></defs><defs><linearGradient id="grad2_2" x1="0%" y1="100%" x2="66.7%" y2="0%"><stop offset="20%" stop-color="#537a6d" stop-opacity="1"></stop><stop offset="80%" stop-color="#98aca5" stop-opacity="1"></stop></linearGradient></defs><defs><linearGradient id="grad2_3" x1="0%" y1="100%" x2="66.7%" y2="0%"><stop offset="20%" stop-color="#e0e0e0" stop-opacity="1"></stop><stop offset="80%" stop-color="#98aca5" stop-opacity="1"></stop></linearGradient></defs><g transform="translate(900, 600)"><path d="M-351.5 0C-327.2 -24.3 -302.8 -48.7 -296.5 -79.5C-290.3 -110.2 -302.1 -147.4 -285.8 -165C-269.4 -182.6 -224.9 -180.5 -205.8 -205.8C-186.6 -231 -192.9 -283.6 -175.8 -304.4C-158.6 -325.3 -118.1 -314.3 -84.9 -316.8C-51.7 -319.4 -25.8 -335.5 0 -351.5L0 0Z" fill="#bcc6c2"></path><path d="M-263.7 0C-245.4 -18.3 -227.1 -36.5 -222.4 -59.6C-217.7 -82.7 -226.6 -110.6 -214.3 -123.8C-202.1 -136.9 -168.7 -135.4 -154.3 -154.3C-140 -173.3 -144.7 -212.7 -131.8 -228.3C-119 -243.9 -88.6 -235.7 -63.7 -237.6C-38.8 -239.5 -19.4 -251.6 0 -263.7L0 0Z" fill="#759288"></path><path d="M-175.8 0C-163.6 -12.2 -151.4 -24.3 -148.3 -39.7C-145.1 -55.1 -151.1 -73.7 -142.9 -82.5C-134.7 -91.3 -112.5 -90.3 -102.9 -102.9C-93.3 -115.5 -96.5 -141.8 -87.9 -152.2C-79.3 -162.6 -59 -157.1 -42.4 -158.4C-25.8 -159.7 -12.9 -167.7 0 -175.8L0 0Z" fill="#306153"></path><path d="M-87.9 0C-81.8 -6.1 -75.7 -12.2 -74.1 -19.9C-72.6 -27.6 -75.5 -36.9 -71.4 -41.3C-67.4 -45.6 -56.2 -45.1 -51.4 -51.4C-46.7 -57.8 -48.2 -70.9 -43.9 -76.1C-39.7 -81.3 -29.5 -78.6 -21.2 -79.2C-12.9 -79.8 -6.5 -83.9 0 -87.9L0 0Z" fill="#024a3a"></path></g><g transform="translate(0, 0)"><path d="M351.5 0C357.3 35.5 363.1 71 339.6 91C316 111 263.2 115.6 246.8 142.5C230.5 169.4 250.6 218.6 237.6 237.6C224.6 256.5 178.5 245.2 150.5 260.7C122.5 276.2 112.6 318.5 90.6 338.1C68.5 357.7 34.3 354.6 0 351.5L0 0Z" fill="#bcc6c2"></path><path d="M263.7 0C268 26.6 272.3 53.2 254.7 68.2C237 83.3 197.4 86.7 185.1 106.9C172.8 127.1 187.9 164 178.2 178.2C168.4 192.4 133.9 183.9 112.9 195.5C91.9 207.1 84.5 238.8 67.9 253.6C51.4 268.3 25.7 266 0 263.7L0 0Z" fill="#759288"></path><path d="M175.8 0C178.7 17.7 181.5 35.5 169.8 45.5C158 55.5 131.6 57.8 123.4 71.2C115.2 84.7 125.3 109.3 118.8 118.8C112.3 128.3 89.2 122.6 75.3 130.3C61.3 138.1 56.3 159.2 45.3 169C34.3 178.8 17.1 177.3 0 175.8L0 0Z" fill="#306153"></path><path d="M87.9 0C89.3 8.9 90.8 17.7 84.9 22.7C79 27.8 65.8 28.9 61.7 35.6C57.6 42.4 62.6 54.7 59.4 59.4C56.1 64.1 44.6 61.3 37.6 65.2C30.6 69 28.2 79.6 22.6 84.5C17.1 89.4 8.6 88.7 0 87.9L0 0Z" fill="#024a3a"></path></g></svg>